<?xml version="1.0" encoding="utf-8"?>
<!-- Generator: Adobe Illustrator 27.5.0, SVG Export Plug-In . SVG Version: 6.00 Build 0)  -->
<svg version="1.1"
	 id="svg1" xmlns:inkscape="http://www.inkscape.org/namespaces/inkscape" xmlns:sodipodi="http://sodipodi.sourceforge.net/DTD/sodipodi-0.dtd" xmlns:svg="http://www.w3.org/2000/svg"
	 xmlns="http://www.w3.org/2000/svg" xmlns:xlink="http://www.w3.org/1999/xlink" x="0px" y="0px" viewBox="0 0 500 500"
	 style="enable-background:new 0 0 500 500;" xml:space="preserve">
<style type="text/css">
	.st0{fill:#A7C1E5;}
</style>
<g id="path1">
	<g>
		<g>
			<g>
				<path class="st0" d="M381.1,275.5c-2.5-2.9-6-4.9-10.7-6.1s-10.7-1.7-18.7-1.7l0,0c-2.7,0-5.2,0-7.1,0.1c-0.9,0-1.7,0.1-2.3,0.1
					c-0.3,0-0.6,0.1-0.8,0.1c-0.1,0-0.2,0-0.3,0.1c-0.1,0-0.2,0-0.5,0.2c-0.6,0.4-0.5,0.7-0.6,0.9c-0.1,0.2-0.1,0.4-0.2,0.7
					c-0.1,0.5-0.1,1.1-0.2,1.9c-0.1,1.5-0.2,3.5-0.2,5.8c-0.1,9.5-1.2,16.3-4.2,25.4c-4.4,13.1-10.4,22.9-20,32.5
					c-11.8,11.8-25.8,19.4-42.6,23c-8.4,1.8-23,1.8-31.2,0c-11.7-2.6-20.9-6.4-30-12.5c-6.2-4.2-15.5-12.7-19.3-17.9
					c-0.8-1-1.5-1.9-2.2-2.6c-0.4-0.3-0.7-0.6-1-0.9c-0.3-0.2-0.5-0.5-1.3-0.6l0,0c-0.6,0-1,0.2-1.4,0.4c-0.4,0.2-0.9,0.5-1.4,0.8
					c-1,0.7-2.3,1.6-3.8,2.8c-2.8,2.3-6.3,5.4-9.5,8.6c-4.1,4.1-6.7,7.1-8.3,10s-2.2,5.8-2.2,9.2c0,3.8,0.3,5.7,1.5,8.1
					c1.6,3.3,5.3,7.3,10.1,11.6c4.8,4.2,10.7,8.7,16.7,12.3c17.9,10.9,36.9,16.9,59,18.6c21.8,1.7,47.3-3.4,66.9-13.2
					c20.9-10.5,40.9-29,52.7-48.7c6.2-10.4,11.3-23,14.4-34.5s4.2-22,2.3-28.6C384,279.6,382.6,277.2,381.1,275.5z"/>
				<path class="st0" d="M207.3,325.4c4.1,3.3,9.6,6.8,14.8,9.4c8.5,4.2,16.5,6.4,24.9,7c20.6,1.5,38.2-3.9,53.6-16.2
					c14.1-11.4,23.3-28.4,25.7-47.5c0.4-2.9,0.6-4.6,0.2-6c-0.2-0.7-0.8-1.5-1.5-1.7c-0.8-0.2-1.4-0.1-2,0.1
					c-0.7,0.2-1.4,0.6-1.8,1.3c-0.4,0.7-0.4,1.4-0.4,2.2c0,2.8-1.6,11.2-3.2,15.9c-5.4,16.2-16.2,29.2-31.4,37.8
					c-14,7.9-30.3,10.2-46.8,6.7c-11-2.3-21.8-8.1-31-16.6c-1.9-1.7-3.2-2.8-4.6-3.2c-0.7-0.2-1.6-0.2-2.2,0.2
					c-0.7,0.5-1,1.2-1.1,1.9c-0.2,0.8,0.1,1.5,0.5,2.2c0.4,0.6,0.8,1.3,1.5,2C203.5,322.2,205.3,323.8,207.3,325.4z"/>
				<path class="st0" d="M493.6,177.8c-0.1-0.4-0.5-0.8-0.9-1c-0.8-0.5-1.5-0.4-2.5-0.3c-2,0.2-5.2,1-11.2,2.5
					c-38.7,9.6-64,10.2-87.9,2.3c-12.8-4.2-20.8-8.7-41.6-23.3c-14.1-9.9-32.6-20.1-44.4-24.4c-7.6-2.8-21.6-6.3-30-7.6
					c-4.9-0.7-12.6-1.1-20.3-1.1s-15.4,0.3-20.2,1.1c-13.7,2.1-28.2,6.3-39.6,11.4c-33.4,15-59.6,41.4-74,74.7
					c-4.9,11.3-7.9,20.2-13.1,38.9c-6.7,24-10.9,33.5-20.5,46.3c-13.4,17.8-35.2,33.9-65.9,48.5c-4.2,2-6.7,3.3-8.2,4.4
					c-0.7,0.6-1.3,1.1-1.5,2s0.3,1.7,0.8,2.2c0.2,0.2,0.8,0.6,1.4,0.7c0.6,0.1,1.1,0,1.9-0.2c1.7-0.3,4.5-1.1,10-2.7
					c14.5-4,31.6-9.4,66.1-20.7c106.3-34.8,198.2-67.9,292.4-105.2c52.5-20.8,72-28.8,91.7-37.4c7.8-3.4,12-5.3,14.3-6.5
					c1.2-0.6,1.9-1.1,2.5-1.6c0.5-0.5,0.8-1.4,0.8-1.9C493.7,178.5,493.7,178.2,493.6,177.8z M308.8,229.9c-2,0.8-5,2-8.5,3.4
					c-7.1,2.8-16.8,6.5-27,10.5c-22.4,8.6-47.6,17.6-76.5,27.3c-3.5,1.2-6.8,2.2-9.2,3c-1.2,0.4-2.1,0.7-2.8,0.9
					c-0.1-0.8-0.2-1.8-0.2-3.1c-0.1-2.6,0-6,0.3-8.7c1-9.3,3-16.2,6.8-24c7.4-14.9,18.5-25.9,33.2-32.8c9.5-4.4,18.5-6.4,29.4-6.4
					c8.1,0,12,0.6,19.9,3c10.8,3.3,19.5,8.4,27.6,16.2c2.3,2.2,4.9,5,6.8,7.2c0.9,1.1,1.7,2.1,2.2,2.8
					C310.2,229.3,309.6,229.5,308.8,229.9z M337.5,218c-0.2,0.1-0.4,0.2-0.7,0.4c-0.6,0.3-1.4,0.7-2.4,1.1c-2,0.9-4.6,2-7.2,3
					c-2.6,1.1-5.2,2.1-7.2,2.9c-1,0.4-1.9,0.7-2.5,0.9c-0.2,0.1-0.3,0.1-0.5,0.1c-0.2-0.2-0.3-0.4-0.6-0.7c-0.7-0.8-1.5-1.8-2.4-3
					c-11.5-15-28.5-25-47.6-28.1c-9.5-1.6-22.3-1-31.6,1.4c-24.6,6.4-43.8,24.2-52.4,48.6c-3,8.5-3.9,14.2-4,24.3v8.1l-10.4,3.3
					c-3.1,1-6,1.9-8.1,2.5c-1.1,0.3-1.9,0.6-2.5,0.8c-0.1,0-0.1,0-0.2,0.1c0-0.6,0-1.6,0.3-3.2c0.4-2,1.3-8.1,2.1-13.5
					c1.7-10.9,3.2-17.3,6.3-26.2c12.8-36.7,46.4-62,84.6-63.6c20.5-0.9,39.7,4.6,57.4,16.3c7,4.6,8.7,6,29.2,23.7
					c0.3,0.2,0.4,0.3,0.5,0.5C337.5,218,337.5,218,337.5,218z"/>
			</g>
		</g>
	</g>
</g>
</svg>
